<svg xmlns="http://www.w3.org/2000/svg" viewBox="0 0 64 64" width="64" height="64">
  <defs>
    <!-- Glow effect -->
    <filter id="glow" x="-50%" y="-50%" width="200%" height="200%">
      <feGaussianBlur stdDeviation="3" result="coloredBlur"/>
      <feMerge> 
        <feMergeNode in="coloredBlur"/>
        <feMergeNode in="SourceGraphic"/>
      </feMerge>
    </filter>
    
    <!-- Orange gradient -->
    <linearGradient id="orangeGradient" x1="0%" y1="0%" x2="100%" y2="100%">
      <stop offset="0%" style="stop-color:#FFA800;stop-opacity:1" />
      <stop offset="100%" style="stop-color:#FFA800;stop-opacity:1" />
    </linearGradient>
  </defs>
  
  <!-- Background circle for glow effect -->
  <circle cx="32" cy="32" r="30" fill="url(#orangeGradient)" filter="url(#glow)" opacity="0.3"/>
  
  <!-- Main arch container -->
  <path d="M8 20 Q8 8 20 8 L44 8 Q56 8 56 20 L56 44 Q56 56 44 56 L20 56 Q8 56 8 44 Z" 
        fill="url(#orangeGradient)" filter="url(#glow)" rx="8"/>
  
  <!-- Person figure (bell-shaped body) -->
  <ellipse cx="32" cy="38" rx="12" ry="16" fill="url(#orangeGradient)" filter="url(#glow)"/>
  
  <!-- Head -->
  <circle cx="32" cy="22" r="6" fill="url(#orangeGradient)" filter="url(#glow)"/>
  
  <!-- Graduation cap -->
  <path d="M24 18 L40 18 L36 22 L28 22 Z" fill="url(#orangeGradient)" filter="url(#glow)"/>
  <rect x="30" y="18" width="4" height="2" fill="url(#orangeGradient)" filter="url(#glow)"/>
  
  <!-- Tassel -->
  <circle cx="32" cy="18" r="1" fill="url(#orangeGradient)" filter="url(#glow)"/>
  
  <!-- Upward arrow -->
  <path d="M42 42 L48 36 L52 40 L48 44 Z" fill="url(#orangeGradient)" filter="url(#glow)"/>
  <path d="M44 44 L44 52 L40 52 L40 44 Z" fill="url(#orangeGradient)" filter="url(#glow)"/>
  
  <!-- Additional glow elements -->
  <circle cx="32" cy="32" r="24" fill="none" stroke="url(#orangeGradient)" stroke-width="2" opacity="0.4" filter="url(#glow)"/>
</svg>
